<?xml version="1.0" encoding="utf-8"?>
<!-- Generator: Adobe Illustrator 16.0.3, SVG Export Plug-In . SVG Version: 6.00 Build 0)  -->
<!DOCTYPE svg PUBLIC "-//W3C//DTD SVG 1.1//EN" "http://www.w3.org/Graphics/SVG/1.1/DTD/svg11.dtd">
<svg version="1.1" id="Layer_1" xmlns="http://www.w3.org/2000/svg" xmlns:xlink="http://www.w3.org/1999/xlink" x="0px" y="0px"
	 width="50px" height="50px" viewBox="0 0 50 50" enable-background="new 0 0 50 50" xml:space="preserve">
<g>
	<path fill="#F6891F" d="M25,0L0,19.099L9.549,50H40.45L50,19.099L25,0z M34.764,39.723c-1.09,0-1.65-0.924-1.022-3.566l1.651-7.131
		c0.265-1.09,0.131-1.619-0.23-1.619c-1.092,0-3.7,2.709-5.219,5.184c-0.43,1.686-0.926,4.525-1.256,6.406
		c-1.321,0.133-2.742,0.43-3.997,0.727l-0.232-0.297c1.389-6.373,2.742-13.109,3.932-19.719c-1.851-0.166-3.601-0.265-5.879-0.265
		h-1.289L18.05,35.07c-0.495,2.412-0.33,2.677,2.643,2.906l-0.297,1.353H9.892l0.297-1.353c2.642-0.197,2.874-0.463,3.402-2.906
		l3.435-15.627h-1.618c-2.577,0-3.402,0.265-4.063,0.991c-0.628,0.662-1.222,1.555-1.916,3.074H7.976
		c0.726-2.28,1.354-4.69,1.717-6.472h1.058c0.33,0.759,0.66,0.825,1.519,0.825h14.302c1.719,0,2.148-0.133,2.246-0.596l0.066-0.33
		c1.518-0.494,3.168-0.99,3.729-0.99c0.463,0,0.496,0.265,0.297,1.222c-0.824,4.193-1.684,8.392-2.574,12.585h0.066
		c1.684-2.146,3.666-3.798,4.99-4.591c1.022-0.594,1.946-0.924,2.738-0.924c0.957,0,2.18,0.495,1.321,4.359l-1.423,6.408
		c-0.23,1.09-0.163,1.355,0.068,1.387c0.264,0,1.254-0.594,1.947-1.221l0.563,1.152C38.327,38.602,35.984,39.723,34.764,39.723z"/>
	<path opacity="0.3" fill="#FFFFFF" enable-background="new    " d="M34.764,39.723c-1.09,0-1.65-0.924-1.022-3.566l1.651-7.131
		c0.265-1.09,0.131-1.619-0.23-1.619c-1.092,0-3.7,2.709-5.219,5.184c-0.43,1.686-0.926,4.525-1.256,6.406
		c-1.321,0.133-2.742,0.43-3.997,0.727l-0.232-0.297c1.389-6.373,2.742-13.109,3.932-19.719c-1.851-0.166-3.601-0.265-5.879-0.265
		h-1.289L18.05,35.07c-0.495,2.412-0.33,2.677,2.643,2.906l-0.297,1.353H9.892l0.297-1.353c2.642-0.197,2.874-0.463,3.402-2.906
		l3.435-15.627h-1.618c-2.577,0-3.402,0.265-4.063,0.991c-0.628,0.662-1.222,1.555-1.916,3.074H7.976
		c0.726-2.28,1.354-4.69,1.717-6.472h1.058c0.33,0.759,0.66,0.825,1.519,0.825h14.302c1.719,0,2.148-0.133,2.246-0.596l0.066-0.33
		c1.518-0.494,3.168-0.99,3.729-0.99c0.463,0,0.496,0.265,0.297,1.222c-0.824,4.193-1.684,8.392-2.574,12.585h0.066
		c1.684-2.146,3.666-3.798,4.99-4.591c1.022-0.594,1.946-0.924,2.738-0.924c0.957,0,2.18,0.495,1.321,4.359l-1.423,6.408
		c-0.23,1.09-0.163,1.355,0.068,1.387c0.264,0,1.254-0.594,1.947-1.221l0.563,1.152C38.327,38.602,35.984,39.723,34.764,39.723z"/>
	<path opacity="0.15" fill="#FFFFFF" enable-background="new    " d="M40.622,12.942l-9.116,11.09
		c-0.393,1.908-0.765,3.814-1.17,5.72h0.066c1.684-2.146,3.666-3.798,4.99-4.591c1.022-0.594,1.946-0.924,2.738-0.924
		c0.957,0,2.18,0.495,1.321,4.359l-1.423,6.408c-0.23,1.09-0.163,1.355,0.068,1.387c0.264,0,1.254-0.594,1.947-1.221l0.563,1.152
		c-2.28,2.279-4.623,3.4-5.844,3.4c-1.091,0-1.652-0.925-1.023-3.566l1.652-7.131c0.264-1.092,0.131-1.621-0.231-1.621
		c-1.091,0-3.7,2.709-5.22,5.185c-0.428,1.687-0.924,4.524-1.254,6.406c-1.322,0.133-2.742,0.43-3.998,0.728l-0.232-0.298
		c0.65-2.983,1.291-6.053,1.913-9.146l-6.284,7.645c0.189,0.02,0.388,0.036,0.606,0.053l-0.297,1.353h-1.463l-7.766,9.448h28.667
		l9.334-29.5L40.622,12.942z"/>
	<g>
		<path fill="#ABABAB" d="M31.148,28.855c-0.112,0.537-0.215,1.072-0.328,1.607h0.066c1.682-2.146,3.665-3.799,4.988-4.592
			c1.023-0.594,1.948-0.925,2.738-0.925c0.324,0,0.676,0.061,0.969,0.285c-0.286-0.836-0.911-0.996-1.452-0.996
			c-0.791,0-1.715,0.331-2.739,0.926C34.26,25.839,32.646,27.148,31.148,28.855z"/>
		<path fill="#ABABAB" d="M10.178,17.746h1.057c0.33,0.76,0.661,0.825,1.519,0.825h14.303c1.719,0,2.147-0.132,2.246-0.594
			l0.066-0.331c1.445-0.472,3-0.938,3.63-0.982c0.074-0.547-0.021-0.72-0.386-0.72c-0.562,0-2.211,0.496-3.729,0.991l-0.065,0.331
			c-0.1,0.462-0.528,0.594-2.246,0.594H12.27c-0.858,0-1.189-0.065-1.519-0.824H9.693c-0.363,1.78-0.991,4.191-1.718,6.473h0.706
			C9.313,21.446,9.853,19.343,10.178,17.746z"/>
		<path fill="#ABABAB" d="M38.58,37.102c0.253,0,1.166-0.543,1.854-1.138l-0.389-0.794c-0.521,0.473-1.213,0.926-1.635,1.12
			C38.32,36.898,38.398,37.076,38.58,37.102z"/>
		<path fill="#ABABAB" d="M20.549,38.632l0.145-0.655c-1.189-0.092-1.924-0.191-2.352-0.431
			C18.448,38.268,19.037,38.484,20.549,38.632z"/>
		<path fill="#ABABAB" d="M34.225,36.868l1.652-7.134c0.264-1.09,0.132-1.616-0.232-1.616c-0.039,0-0.084,0.011-0.127,0.019
			c-0.006,0.24-0.035,0.52-0.125,0.889l-1.651,7.135c-0.476,1.994-0.269,3.008,0.329,3.385
			C33.902,38.979,33.927,38.123,34.225,36.868z"/>
		<path fill="#ABABAB" d="M10.673,38.688c2.643-0.196,2.874-0.463,3.403-2.906l3.435-15.627H16.87L13.591,35.07
			c-0.529,2.443-0.76,2.709-3.403,2.906l-0.297,1.353h0.64L10.673,38.688z"/>
		<path fill="#ABABAB" d="M28.874,20.417c-0.204-0.018-0.405-0.032-0.606-0.049c-1.16,6.397-2.468,12.897-3.809,19.058l0.231,0.297
			c0.116-0.027,0.24-0.055,0.359-0.082C26.398,33.414,27.715,26.857,28.874,20.417z"/>
	</g>
</g>
</svg>
