<?xml version="1.0" encoding="utf-8"?>
<!-- Generator: Adobe Illustrator 16.0.3, SVG Export Plug-In . SVG Version: 6.00 Build 0)  -->
<!DOCTYPE svg PUBLIC "-//W3C//DTD SVG 1.0//EN" "http://www.w3.org/TR/2001/REC-SVG-20010904/DTD/svg10.dtd">
<svg version="1.0" xmlns="http://www.w3.org/2000/svg" xmlns:xlink="http://www.w3.org/1999/xlink" x="0px" y="0px" width="50px"
	 height="50px" viewBox="0 0 50 50" enable-background="new 0 0 50 50" xml:space="preserve">
<g id="Layer_1" display="none">
	<polygon display="inline" fill="#99CA3C" points="25,0 0,19.099 9.549,50 40.45,50 50,19.099 	"/>
	<g display="inline">
		<defs>
			<polygon id="SVGID_1_" points="25,0 0,19.098 9.549,50 40.451,50 50,19.098 			"/>
		</defs>
		<clipPath id="SVGID_2_">
			<use xlink:href="#SVGID_1_"  overflow="visible"/>
		</clipPath>
		<g opacity="0.15" clip-path="url(#SVGID_2_)">
			<g>
				<defs>
					<rect id="SVGID_3_" x="0.63" y="4" width="65.37" height="53"/>
				</defs>
				<clipPath id="SVGID_4_">
					<use xlink:href="#SVGID_3_"  overflow="visible"/>
				</clipPath>
				<polygon clip-path="url(#SVGID_4_)" fill="#FFFFFF" points="11.167,48.777 40.622,12.942 49.167,19.277 39.833,48.777 				"/>
			</g>
		</g>
	</g>
	<g display="inline">
		<defs>
			<rect id="SVGID_5_" width="50" height="50"/>
		</defs>
		<clipPath id="SVGID_6_">
			<use xlink:href="#SVGID_5_"  overflow="visible"/>
		</clipPath>
		<path clip-path="url(#SVGID_6_)" fill="#ABABAB" d="M40.045,35.17c-0.693,0.627-1.685,1.221-1.949,1.221
			c-0.23-0.033-0.297-0.297-0.065-1.387l1.421-6.408c0.858-3.865-0.363-4.361-1.32-4.361c-0.791,0-1.715,0.331-2.739,0.926
			c-1.323,0.793-3.306,2.444-4.989,4.591h-0.066c0.891-4.195,1.749-8.393,2.574-12.584c0.198-0.958,0.165-1.224-0.297-1.224
			c-0.561,0-2.211,0.496-3.729,0.991l-0.066,0.331c-0.099,0.462-0.528,0.594-2.246,0.594H12.27c-0.858,0-1.189-0.065-1.519-0.824
			H9.693c-0.363,1.78-0.991,4.191-1.718,6.473h1.454c0.693-1.521,1.288-2.413,1.916-3.074c0.66-0.728,1.486-0.992,4.062-0.992h1.619
			l-3.435,15.628c-0.529,2.443-0.76,2.709-3.403,2.906l-0.297,1.352h10.504l0.298-1.352c-2.973-0.23-3.139-0.496-2.643-2.906
			l3.171-15.628h1.288c2.279,0,4.03,0.1,5.88,0.265c-1.189,6.609-2.544,13.346-3.931,19.719l0.231,0.297
			c1.256-0.297,2.676-0.594,3.997-0.725c0.331-1.883,0.826-4.725,1.255-6.408c1.52-2.475,4.129-5.183,5.219-5.183
			c0.364,0,0.496,0.527,0.232,1.617l-1.652,7.135c-0.628,2.641-0.066,3.564,1.023,3.564c1.221,0,3.564-1.123,5.844-3.4L40.045,35.17
			z"/>
	</g>
	<g display="inline">
		<defs>
			<path id="SVGID_7_" d="M28.885,16.936l-0.066,0.33c-0.099,0.463-0.528,0.596-2.247,0.596H12.27c-0.859,0-1.189-0.066-1.519-0.825
				H9.693c-0.363,1.781-0.991,4.191-1.717,6.472h1.453c0.694-1.52,1.288-2.412,1.916-3.074c0.661-0.727,1.486-0.991,4.063-0.991
				h1.618l-3.435,15.628c-0.528,2.443-0.76,2.709-3.402,2.906l-0.297,1.352h10.504l0.297-1.352c-2.973-0.23-3.138-0.494-2.643-2.906
				l3.171-15.628h1.289c2.279,0,4.029,0.099,5.88,0.265c-1.19,6.609-2.544,13.346-3.932,19.719l0.232,0.297
				c1.255-0.297,2.675-0.594,3.997-0.727c0.33-1.881,0.826-4.721,1.255-6.406c1.519-2.475,4.128-5.184,5.219-5.184
				c0.362,0,0.495,0.528,0.231,1.62l-1.652,7.131c-0.627,2.643-0.066,3.566,1.023,3.566c1.221,0,3.563-1.121,5.844-3.4l-0.562-1.152
				c-0.694,0.627-1.685,1.221-1.948,1.221c-0.231-0.031-0.299-0.297-0.068-1.387l1.423-6.408c0.858-3.864-0.364-4.359-1.321-4.359
				c-0.792,0-1.716,0.33-2.738,0.924c-1.324,0.793-3.307,2.444-4.99,4.591h-0.067c0.891-4.195,1.75-8.392,2.574-12.585
				c0.199-0.957,0.166-1.222-0.297-1.222C32.053,15.945,30.403,16.441,28.885,16.936"/>
		</defs>
		<clipPath id="SVGID_8_">
			<use xlink:href="#SVGID_7_"  overflow="visible"/>
		</clipPath>
		<path clip-path="url(#SVGID_8_)" fill="#FFFFFF" d="M40.529,35.881c-0.693,0.627-1.685,1.221-1.949,1.221
			c-0.23-0.033-0.297-0.297-0.065-1.387l1.421-6.408c0.858-3.865-0.363-4.361-1.32-4.361c-0.791,0-1.715,0.331-2.739,0.925
			c-1.323,0.793-3.306,2.446-4.989,4.592h-0.066c0.891-4.195,1.749-8.393,2.574-12.585c0.198-0.958,0.165-1.222-0.297-1.222
			c-0.561,0-2.211,0.495-3.729,0.99l-0.066,0.331c-0.099,0.462-0.528,0.594-2.246,0.594H12.754c-0.858,0-1.189-0.065-1.519-0.825
			h-1.057c-0.363,1.781-0.991,4.192-1.718,6.474h1.454c0.693-1.521,1.288-2.413,1.916-3.074c0.66-0.729,1.486-0.992,4.062-0.992
			h1.619l-3.435,15.628c-0.529,2.443-0.76,2.709-3.403,2.906l-0.297,1.35H20.88l0.298-1.35c-2.973-0.232-3.139-0.496-2.643-2.906
			l3.171-15.628h1.288c2.279,0,4.03,0.099,5.88,0.264c-1.189,6.61-2.544,13.347-3.931,19.72l0.231,0.297
			c1.256-0.297,2.676-0.594,3.997-0.727c0.331-1.883,0.826-4.723,1.255-6.406c1.52-2.477,4.129-5.184,5.219-5.184
			c0.364,0,0.496,0.527,0.232,1.617l-1.652,7.133c-0.628,2.643-0.066,3.566,1.023,3.566c1.221,0,3.564-1.123,5.844-3.4
			L40.529,35.881z"/>
	</g>
</g>
<g id="Layer_1_copy" display="none">
	<polygon display="inline" fill="#99CA3C" points="25,0 0,19.099 9.549,50 40.45,50 50,19.099 	"/>
	<polygon display="inline" opacity="0.15" fill="#FFFFFF" points="11.167,48.777 40.622,12.942 49.167,19.277 39.833,48.777 	"/>
	<g>
		<defs>
			<rect id="SVGID_9_" width="50" height="50"/>
		</defs>
		<clipPath id="SVGID_10_" display="inline">
			<use xlink:href="#SVGID_9_"  overflow="visible"/>
		</clipPath>
		<path display="inline" clip-path="url(#SVGID_10_)" fill="#ABABAB" d="M40.045,35.17c-0.693,0.627-1.685,1.221-1.949,1.221
			c-0.23-0.033-0.297-0.297-0.065-1.387l1.421-6.408c0.858-3.865-0.363-4.361-1.32-4.361c-0.791,0-1.715,0.331-2.739,0.926
			c-1.323,0.793-3.306,2.444-4.989,4.591h-0.066c0.891-4.195,1.749-8.393,2.574-12.584c0.198-0.958,0.165-1.224-0.297-1.224
			c-0.561,0-2.211,0.496-3.729,0.991l-0.066,0.331c-0.099,0.462-0.528,0.594-2.246,0.594H12.27c-0.858,0-1.189-0.065-1.519-0.824
			H9.693c-0.363,1.78-0.991,4.191-1.718,6.473h1.454c0.693-1.521,1.288-2.413,1.916-3.074c0.66-0.728,1.486-0.992,4.062-0.992h1.619
			l-3.435,15.628c-0.529,2.443-0.76,2.709-3.403,2.906l-0.297,1.352h10.504l0.298-1.352c-2.973-0.23-3.139-0.496-2.643-2.906
			l3.171-15.628h1.288c2.279,0,4.03,0.1,5.88,0.265c-1.189,6.609-2.544,13.346-3.931,19.719l0.231,0.297
			c1.256-0.297,2.676-0.594,3.997-0.725c0.331-1.883,0.826-4.725,1.255-6.408c1.52-2.475,4.129-5.183,5.219-5.183
			c0.364,0,0.496,0.527,0.232,1.617l-1.652,7.135c-0.628,2.641-0.066,3.564,1.023,3.564c1.221,0,3.564-1.123,5.844-3.4L40.045,35.17
			z"/>
	</g>
	<g>
		<defs>
			<path id="SVGID_11_" d="M28.885,16.936l-0.066,0.33c-0.099,0.463-0.528,0.596-2.247,0.596H12.27
				c-0.859,0-1.189-0.066-1.519-0.825H9.693c-0.363,1.781-0.991,4.191-1.717,6.472h1.453c0.694-1.52,1.288-2.412,1.916-3.074
				c0.661-0.727,1.486-0.991,4.063-0.991h1.618l-3.435,15.628c-0.528,2.443-0.76,2.709-3.402,2.906l-0.297,1.352h10.504l0.297-1.352
				c-2.973-0.23-3.138-0.494-2.643-2.906l3.171-15.628h1.289c2.279,0,4.029,0.099,5.88,0.265c-1.19,6.609-2.544,13.346-3.932,19.719
				l0.232,0.297c1.255-0.297,2.675-0.594,3.997-0.727c0.33-1.881,0.826-4.721,1.255-6.406c1.519-2.475,4.128-5.184,5.219-5.184
				c0.362,0,0.495,0.528,0.231,1.62l-1.652,7.131c-0.627,2.643-0.066,3.566,1.023,3.566c1.221,0,3.563-1.121,5.844-3.4l-0.562-1.152
				c-0.694,0.627-1.685,1.221-1.948,1.221c-0.231-0.031-0.299-0.297-0.068-1.387l1.423-6.408c0.858-3.864-0.364-4.359-1.321-4.359
				c-0.792,0-1.716,0.33-2.738,0.924c-1.324,0.793-3.307,2.444-4.99,4.591h-0.067c0.891-4.195,1.75-8.392,2.574-12.585
				c0.199-0.957,0.166-1.222-0.297-1.222C32.053,15.945,30.403,16.441,28.885,16.936"/>
		</defs>
		<clipPath id="SVGID_12_" display="inline">
			<use xlink:href="#SVGID_11_"  overflow="visible"/>
		</clipPath>
		<path display="inline" clip-path="url(#SVGID_12_)" fill="#FFFFFF" d="M40.529,35.881c-0.693,0.627-1.685,1.221-1.949,1.221
			c-0.23-0.033-0.297-0.297-0.065-1.387l1.421-6.408c0.858-3.865-0.363-4.361-1.32-4.361c-0.791,0-1.715,0.331-2.739,0.925
			c-1.323,0.793-3.306,2.446-4.989,4.592h-0.066c0.891-4.195,1.749-8.393,2.574-12.585c0.198-0.958,0.165-1.222-0.297-1.222
			c-0.561,0-2.211,0.495-3.729,0.99l-0.066,0.331c-0.099,0.462-0.528,0.594-2.246,0.594H12.754c-0.858,0-1.189-0.065-1.519-0.825
			h-1.057c-0.363,1.781-0.991,4.192-1.718,6.474h1.454c0.693-1.521,1.288-2.413,1.916-3.074c0.66-0.729,1.486-0.992,4.062-0.992
			h1.619l-3.435,15.628c-0.529,2.443-0.76,2.709-3.403,2.906l-0.297,1.35H20.88l0.298-1.35c-2.973-0.232-3.139-0.496-2.643-2.906
			l3.171-15.628h1.288c2.279,0,4.03,0.099,5.88,0.264c-1.189,6.61-2.544,13.347-3.931,19.72l0.231,0.297
			c1.256-0.297,2.676-0.594,3.997-0.727c0.331-1.883,0.826-4.723,1.255-6.406c1.52-2.477,4.129-5.184,5.219-5.184
			c0.364,0,0.496,0.527,0.232,1.617l-1.652,7.133c-0.628,2.643-0.066,3.566,1.023,3.566c1.221,0,3.564-1.123,5.844-3.4
			L40.529,35.881z"/>
	</g>
	<path fill="#231F20" d="M28.885,16.936l-0.066,0.33c-0.099,0.463-0.528,0.596-2.247,0.596H12.27c-0.859,0-1.189-0.066-1.519-0.825
		H9.693c-0.363,1.781-0.991,4.191-1.717,6.472h1.453c0.694-1.52,1.288-2.412,1.916-3.074c0.661-0.727,1.486-0.991,4.063-0.991h1.618
		l-3.435,15.628c-0.528,2.443-0.76,2.709-3.402,2.906l-0.297,1.352h10.504l0.297-1.352c-2.973-0.23-3.138-0.494-2.643-2.906
		l3.171-15.628h1.289c2.279,0,4.029,0.099,5.88,0.265c-1.19,6.609-2.544,13.346-3.932,19.719l0.232,0.297
		c1.255-0.297,2.675-0.594,3.997-0.727c0.33-1.881,0.826-4.721,1.255-6.406c1.519-2.475,4.128-5.184,5.219-5.184
		c0.362,0,0.495,0.528,0.231,1.62l-1.652,7.131c-0.627,2.643-0.066,3.566,1.023,3.566c1.221,0,3.563-1.121,5.844-3.4l-0.562-1.152
		c-0.694,0.627-1.685,1.221-1.948,1.221c-0.231-0.031-0.299-0.297-0.068-1.387l1.423-6.408c0.858-3.864-0.364-4.359-1.321-4.359
		c-0.792,0-1.716,0.33-2.738,0.924c-1.324,0.793-3.307,2.444-4.99,4.591h-0.067c0.891-4.195,1.75-8.392,2.574-12.585
		c0.199-0.957,0.166-1.222-0.297-1.222C32.053,15.945,30.403,16.441,28.885,16.936"/>
	<path display="inline" fill="#231F20" d="M28.885,16.936l-0.066,0.33c-0.099,0.463-0.528,0.596-2.247,0.596H12.27
		c-0.859,0-1.189-0.066-1.519-0.825H9.693c-0.363,1.781-0.991,4.191-1.717,6.472h1.453c0.694-1.52,1.288-2.412,1.916-3.074
		c0.661-0.727,1.486-0.991,4.063-0.991h1.618l-3.435,15.628c-0.528,2.443-0.76,2.709-3.402,2.906l-0.297,1.352h10.504l0.297-1.352
		c-2.973-0.23-3.138-0.494-2.643-2.906l3.171-15.628h1.289c2.279,0,4.029,0.099,5.88,0.265c-1.19,6.609-2.544,13.346-3.932,19.719
		l0.232,0.297c1.255-0.297,2.675-0.594,3.997-0.727c0.33-1.881,0.826-4.721,1.255-6.406c1.519-2.475,4.128-5.184,5.219-5.184
		c0.362,0,0.495,0.528,0.231,1.62l-1.652,7.131c-0.627,2.643-0.066,3.566,1.023,3.566c1.221,0,3.563-1.121,5.844-3.4l-0.562-1.152
		c-0.694,0.627-1.685,1.221-1.948,1.221c-0.231-0.031-0.299-0.297-0.068-1.387l1.423-6.408c0.858-3.864-0.364-4.359-1.321-4.359
		c-0.792,0-1.716,0.33-2.738,0.924c-1.324,0.793-3.307,2.444-4.99,4.591h-0.067c0.891-4.195,1.75-8.392,2.574-12.585
		c0.199-0.957,0.166-1.222-0.297-1.222C32.053,15.945,30.403,16.441,28.885,16.936"/>
</g>
<g id="Layer_1_copy_2">
	<path fill="#99CA3C" d="M25,0L0,19.099L9.549,50H40.45L50,19.099L25,0z M34.764,39.723c-1.09,0-1.651-0.924-1.023-3.566
		l1.652-7.131c0.264-1.091,0.131-1.62-0.231-1.62c-1.091,0-3.7,2.709-5.219,5.184c-0.429,1.686-0.925,4.525-1.255,6.406
		c-1.322,0.133-2.742,0.43-3.997,0.727l-0.232-0.297c1.388-6.373,2.742-13.11,3.932-19.719c-1.851-0.166-3.601-0.265-5.88-0.265
		h-1.289L18.05,35.071c-0.495,2.412-0.33,2.676,2.643,2.906l-0.297,1.352H9.892l0.297-1.352c2.642-0.197,2.874-0.463,3.402-2.906
		l3.435-15.628h-1.618c-2.577,0-3.402,0.265-4.063,0.991c-0.628,0.662-1.222,1.555-1.916,3.074H7.976
		c0.726-2.28,1.354-4.69,1.717-6.472h1.058c0.33,0.759,0.66,0.825,1.519,0.825h14.302c1.719,0,2.148-0.133,2.247-0.596l0.066-0.33
		c1.518-0.494,3.168-0.99,3.728-0.99c0.463,0,0.496,0.265,0.297,1.222c-0.824,4.193-1.683,8.391-2.574,12.585h0.067
		c1.683-2.147,3.666-3.798,4.99-4.591c1.022-0.594,1.946-0.924,2.738-0.924c0.957,0,2.18,0.495,1.321,4.359l-1.423,6.408
		c-0.23,1.09-0.163,1.355,0.068,1.387c0.264,0,1.254-0.594,1.948-1.221l0.562,1.152C38.327,38.602,35.984,39.723,34.764,39.723z"/>
	<path opacity="0.5" fill="#FFFFFF" d="M34.764,39.723c-1.09,0-1.651-0.924-1.023-3.566l1.652-7.131
		c0.264-1.091,0.131-1.62-0.231-1.62c-1.091,0-3.7,2.709-5.219,5.184c-0.429,1.686-0.925,4.525-1.255,6.406
		c-1.322,0.133-2.742,0.43-3.997,0.727l-0.232-0.297c1.388-6.373,2.742-13.11,3.932-19.719c-1.851-0.166-3.601-0.265-5.88-0.265
		h-1.289L18.05,35.071c-0.495,2.412-0.33,2.676,2.643,2.906l-0.297,1.352H9.892l0.297-1.352c2.642-0.197,2.874-0.463,3.402-2.906
		l3.435-15.628h-1.618c-2.577,0-3.402,0.265-4.063,0.991c-0.628,0.662-1.222,1.555-1.916,3.074H7.976
		c0.726-2.28,1.354-4.69,1.717-6.472h1.058c0.33,0.759,0.66,0.825,1.519,0.825h14.302c1.719,0,2.148-0.133,2.247-0.596l0.066-0.33
		c1.518-0.494,3.168-0.99,3.728-0.99c0.463,0,0.496,0.265,0.297,1.222c-0.824,4.193-1.683,8.391-2.574,12.585h0.067
		c1.683-2.147,3.666-3.798,4.99-4.591c1.022-0.594,1.946-0.924,2.738-0.924c0.957,0,2.18,0.495,1.321,4.359l-1.423,6.408
		c-0.23,1.09-0.163,1.355,0.068,1.387c0.264,0,1.254-0.594,1.948-1.221l0.562,1.152C38.327,38.602,35.984,39.723,34.764,39.723z"/>
	<path opacity="0.15" fill="#FFFFFF" d="M40.622,12.942l-9.116,11.09c-0.392,1.907-0.765,3.813-1.17,5.72h0.067
		c1.683-2.147,3.666-3.798,4.99-4.591c1.022-0.594,1.946-0.924,2.738-0.924c0.957,0,2.18,0.495,1.321,4.359l-1.423,6.408
		c-0.23,1.09-0.163,1.355,0.068,1.387c0.264,0,1.254-0.594,1.948-1.221l0.562,1.152c-2.28,2.279-4.623,3.4-5.844,3.4
		c-1.09,0-1.651-0.924-1.023-3.566l1.652-7.131c0.264-1.091,0.131-1.62-0.231-1.62c-1.091,0-3.7,2.709-5.219,5.184
		c-0.429,1.686-0.925,4.525-1.255,6.406c-1.322,0.133-2.742,0.43-3.997,0.727l-0.232-0.297c0.65-2.984,1.291-6.053,1.913-9.146
		l-6.284,7.645c0.189,0.019,0.388,0.036,0.606,0.053l-0.297,1.352h-1.463l-7.766,9.448h28.667l9.334-29.5L40.622,12.942z"/>
	<g>
		<path fill="#ABABAB" d="M31.149,28.856c-0.113,0.536-0.215,1.072-0.329,1.607h0.066c1.683-2.146,3.666-3.799,4.989-4.592
			c1.024-0.594,1.948-0.925,2.739-0.925c0.323,0,0.675,0.061,0.968,0.285c-0.286-0.836-0.911-0.996-1.452-0.996
			c-0.791,0-1.715,0.331-2.739,0.926C34.26,25.839,32.646,27.149,31.149,28.856z"/>
		<path fill="#ABABAB" d="M10.178,17.746h1.057c0.33,0.76,0.661,0.825,1.519,0.825h14.303c1.718,0,2.147-0.132,2.246-0.594
			l0.066-0.331c1.446-0.472,3-0.938,3.63-0.982c0.074-0.547-0.02-0.72-0.386-0.72c-0.561,0-2.211,0.496-3.729,0.991l-0.066,0.331
			c-0.099,0.462-0.528,0.594-2.246,0.594H12.27c-0.858,0-1.189-0.065-1.519-0.824H9.693c-0.363,1.78-0.991,4.191-1.718,6.473h0.706
			C9.313,21.446,9.853,19.343,10.178,17.746z"/>
		<path fill="#ABABAB" d="M38.58,37.102c0.253,0,1.166-0.543,1.853-1.138l-0.388-0.794c-0.522,0.472-1.213,0.925-1.635,1.12
			C38.321,36.898,38.398,37.076,38.58,37.102z"/>
		<path fill="#ABABAB" d="M20.549,38.632l0.145-0.655c-1.189-0.092-1.924-0.192-2.352-0.431
			C18.448,38.267,19.037,38.485,20.549,38.632z"/>
		<path fill="#ABABAB" d="M34.225,36.868l1.652-7.133c0.264-1.09,0.132-1.617-0.232-1.617c-0.039,0-0.085,0.011-0.128,0.018
			c-0.006,0.241-0.035,0.521-0.124,0.889l-1.652,7.135c-0.475,1.995-0.268,3.008,0.33,3.385
			C33.903,38.979,33.927,38.123,34.225,36.868z"/>
		<path fill="#ABABAB" d="M10.673,38.688c2.643-0.197,2.874-0.463,3.403-2.906l3.435-15.628H16.87l-3.279,14.917
			c-0.529,2.443-0.76,2.709-3.403,2.906l-0.297,1.352h0.64L10.673,38.688z"/>
		<path fill="#ABABAB" d="M28.874,20.417c-0.204-0.018-0.405-0.032-0.607-0.049c-1.16,6.397-2.467,12.897-3.808,19.058l0.231,0.297
			c0.116-0.027,0.24-0.055,0.359-0.082C26.398,33.414,27.715,26.858,28.874,20.417z"/>
	</g>
	<g>
	</g>
	<g>
	</g>
	<g>
	</g>
	<g>
	</g>
	<g>
	</g>
	<g>
	</g>
</g>
</svg>
