<?xml version="1.0" encoding="utf-8"?>
<!-- Generator: Adobe Illustrator 16.0.3, SVG Export Plug-In . SVG Version: 6.00 Build 0)  -->
<!DOCTYPE svg PUBLIC "-//W3C//DTD SVG 1.0//EN" "http://www.w3.org/TR/2001/REC-SVG-20010904/DTD/svg10.dtd">
<svg version="1.0" id="Layer_1" xmlns="http://www.w3.org/2000/svg" xmlns:xlink="http://www.w3.org/1999/xlink" x="0px" y="0px"
	 width="159.15px" height="75.473px" viewBox="0 0 159.15 75.473" enable-background="new 0 0 159.15 75.473" xml:space="preserve">
<g>
	<defs>
		<rect id="SVGID_1_" width="159.15" height="75.473"/>
	</defs>
	<clipPath id="SVGID_2_">
		<use xlink:href="#SVGID_1_"  overflow="visible"/>
	</clipPath>
	<path clip-path="url(#SVGID_2_)" fill="#86AE3F" d="M36.3,75.459c17.7-0.6,29.4-11.701,41.1-27.75c1.2,0.449,2.4,0.6,3.75,0.6
		c6-0.301,10.649-5.1,10.5-11.1c-0.15-2.55-1.051-4.8-2.551-6.45c9.45-13.5,18.301-24.45,28.95-24.75c2.851,0,4.05,1.05,4.05,2.4
		c0,1.05-0.449,2.85-0.899,4.5c-0.3,1.05-1.5,3.899-1.5,7.05c0,4.2,3.45,6.9,11.55,9.15c14.1,4.05,19.05,7.649,19.05,20.549
		c0,14.551-12.899,20.85-19.649,21c-4.051,0.15-6.301-2.1-6.301-3.75s0.45-2.4,1.95-3.6c0.9-0.75,2.101-2.25,2.101-4.949
		c0-3.602-2.25-9.451-10.5-9.451c-6,0-10.65,5.701-10.65,11.85c0,10.051,11.1,14.852,20.85,14.701
		c14.851-0.301,31.051-12.75,31.051-37.5c0-22.951-15.75-38.401-35.101-37.951c-16.649,0.45-26.25,9.15-39.3,27.601
		c-1.2-0.45-2.7-0.75-4.2-0.75c-5.55,0.149-10.35,5.25-10.2,10.799c0.15,2.551,1.05,4.951,2.55,6.75
		c-8.55,12.15-19.35,24.75-29.85,24.75c-2.55,0-4.2-0.75-4.2-2.1c0-1.65,0.45-3.15,1.35-5.25c1.05-2.25,1.2-4.35,1.2-6.75
		c0-1.949-0.6-6.449-7.2-8.25c-6.9-1.801-24.45-4.5-24.45-22.05c0-9.149,9.6-19.95,20.25-20.25c5.85-0.149,9.75,1.05,9.75,3.45
		c0,0.9-0.9,2.85-2.7,4.5c-4.05,2.85-5.1,4.2-5.1,6.9c0,5.25,5.1,9.449,11.7,9.3c4.65,0,10.65-4.2,10.65-11.4
		c0-12.149-13.05-17.25-22.05-17.25C19.8,0.009,0,11.859,0,37.659C0,56.709,14.1,76.059,36.3,75.459"/>
</g>
<g>
</g>
<g>
</g>
<g>
</g>
<g>
</g>
<g>
</g>
<g>
</g>
</svg>
